<svg xmlns="http://www.w3.org/2000/svg" viewBox="0 0 377.82 116.48"><defs><style>.cls-1{fill:#fff;}</style></defs><g id="Layer_2" data-name="Layer 2"><g id="Layer_1-2" data-name="Layer 1"><path class="cls-1" d="M281.61.33h28V5.79c0,20.66-.09,41.32.08,62a33.76,33.76,0,0,0,1.8,11.7c2.66,6.89,12.38,10,22.7,8,9.14-1.77,14.38-7,14.6-15.12.22-8.33.06-16.66.07-25V.5h17.75V5c0,21.17.06,42.33-.05,63.49a59.11,59.11,0,0,1-1.12,11.42c-2.86,14-11.41,22.48-25.94,24.53a71.62,71.62,0,0,1-20.88-.07c-16.88-2.62-25.78-13.4-26.31-32.28-.56-19.81-.11-39.65-.08-59.48a6.32,6.32,0,0,1,.43-1.55h5.95v5.51q0,26.49,0,53c0,18.86,10.47,29.3,29.46,29.29A59.9,59.9,0,0,0,340,97.82c11.35-2.32,19.34-10.57,19.62-22.13.55-22.79.16-45.6.16-68.76h-4.45V22c0,15.83,0,31.66,0,47.49,0,14.76-8.43,23.61-23.19,24.51a52,52,0,0,1-6,0c-14.5-.76-22.39-8.66-22.53-23.15-.2-19.33-.05-38.66-.06-58V7H288a14.23,14.23,0,0,0-.32,2.23c0,21.49-.18,43,0,64.49.21,21,13.6,34.63,35.48,36.06a85.05,85.05,0,0,0,18.39-.79c16.34-2.51,27.22-13.83,29.09-30.29a209.54,209.54,0,0,0,.87-22.43c.11-18.49,0-37,0-55.89L377.49,0c.1,1.59.28,3,.28,4.43,0,22,.1,44,0,66-.06,12.34-3.19,23.68-11.82,33-7,7.63-16.11,11.16-26.06,12.31-11.13,1.3-22.33,1.16-32.95-3.05-17.69-7-25.13-21.31-25.58-39.27-.58-23.64-.14-47.32-.12-71A13.2,13.2,0,0,1,281.61.33Z"/><path class="cls-1" d="M83.53,76.68c5.28,8,10.41,15.72,15.51,23.45-28.32,23.63-62.21,20.54-83.5-2.72C-6.68,73.14-4.8,36.78,19.46,15.1c22.59-20.19,60.4-19,79.94,3l-4,4.51C83,10.48,68.42,5.15,51.55,7.15A49.73,49.73,0,0,0,18.94,24.74a51.21,51.21,0,0,0,1.59,69.1c18.27,19.3,48.23,21.44,69.76,4.65-2.9-4.3-5.82-8.62-8.72-12.9C59.08,97.2,43.29,95.43,31,80.16A34.47,34.47,0,0,1,31.17,36c9.73-11.94,28.45-18,48.11-6l3.24-3.44c-14.19-12.17-36.45-11.54-51,1.26C16.13,41.35,12.92,63.55,23.9,80.38c12.18,18.66,32.48,23.26,56,12.49L83,97.15c-11.58,10.51-41.24,13.6-60-7.66C5.59,69.85,7.71,39.55,27.48,22.81c18.94-16,49.37-14.61,63.73,3.31L80.43,38.92c-19.56-12.31-33-12-44.22.81-9.26,10.6-9.09,25.33.4,37C47.4,89.87,60.06,90,83.53,76.68Z"/><path class="cls-1" d="M107.86.63h5.67V109.8h62.93V94H130.3v-16h6.07v9.54h46.25v28.67H107.86Z"/><path class="cls-1" d="M197.07.56h5.63V109.7h63.24V94H219.82V78h5.8v9.68h46.77v28.53H197.07Z"/><path class="cls-1" d="M214.52,71.7V98.91h46.11v6H208.45V65.46h49.78V49.39H219.89V11.63h39.74v6.16H226V42.88h38.53V71.7Z"/><path class="cls-1" d="M175,71.81H125.2v27H171V105h-52V65.44h49.69V49.21H130.1V11.69h40.25v6.06H136.52v25H175Z"/><path class="cls-1" d="M182,28.77H142.44V22.92h33.2V7.06H125.3V54h38.12v6.26H119.09V.73H182Z"/><path class="cls-1" d="M208.4,60.25V.69h63.16V28.77H231.93V23H265.2V7.17H214.72V53.78h37.92v6.47Z"/></g></g></svg>